# xmcd
#
# Track frame offsets:
# 150
# 20996
# 36183
# 52247
# 70338
# 87761
# 106713
# 124794
# 139806
# 151950
#
# Disc length: 2325 seconds
#
# Revision: 0
# Processed by: cddbd v1.5.1PL2 Copyright (c) Steve Scherf et al.
# Submitted via: Audion 3.0.2 (http://www.panic.com/audion/)
#
DISCID=8909130a
DTITLE=Jess Yoakum - Jess Yoakum
DYEAR=1900
DGENRE=
TTITLE0=The Leaving Song
TTITLE1=No Place Like Home
TTITLE2=The Grey
TTITLE3=Bubbles
TTITLE4=Emily's Song
TTITLE5=Escape Route
TTITLE6=This Dark Road
TTITLE7=Lay Down
TTITLE8=Returning You
TTITLE9=The Closet Side
EXTD=
EXTT0=
EXTT1=
EXTT2=
EXTT3=
EXTT4=
EXTT5=
EXTT6=
EXTT7=
EXTT8=
EXTT9=
PLAYORDER=
